<svg width="42" height="38" viewBox="0 0 42 38" fill="none" xmlns="http://www.w3.org/2000/svg">
<path d="M38 0C40.2091 0 42 1.79086 42 4V34C42 36.2091 40.2091 38 38 38H4C1.79086 38 1.61066e-08 36.2091 0 34V4C3.22133e-07 1.79086 1.79086 4.0266e-08 4 0H38ZM34.5 28.5C34.5 30.1569 33.1569 31.5 31.5 31.5H21.5C20.6716 31.5 20 32.1716 20 33C20 33.8284 20.6716 34.5 21.5 34.5H34.5C36.1569 34.5 37.5 33.1569 37.5 31.5V19.5C37.5 18.6716 36.8284 18 36 18C35.1716 18 34.5 18.6716 34.5 19.5V28.5ZM24.0034 22.1211C23.453 22.7402 23.5088 23.6884 24.128 24.2388L30.8857 30.2457C31.5049 30.796 32.453 30.7403 33.0034 30.1211C33.5538 29.5019 33.498 28.5538 32.8788 28.0034L26.1211 21.9965C25.5019 21.4462 24.5538 21.5019 24.0034 22.1211ZM4.5 18.5C4.5 19.3284 5.17157 20 6 20C6.82843 20 7.5 19.3284 7.5 18.5V9.5C7.5 7.84315 8.84315 6.5 10.5 6.5H20.5C21.3284 6.5 22 5.82843 22 5C22 4.17157 21.3284 3.5 20.5 3.5H7.5C5.84315 3.5 4.5 4.84315 4.5 6.5V18.5ZM8.99661 7.87888C8.4462 8.49805 8.50196 9.44619 9.12115 9.99658L15.8789 16.0035C16.4981 16.5538 17.4462 16.4981 17.9966 15.8789C18.547 15.2598 18.4912 14.3116 17.872 13.7612L11.1143 7.75434C10.4951 7.20397 9.547 7.25972 8.99661 7.87888Z" fill="#FBFAF6"/>
</svg>
