<svg width="42" height="38" viewBox="0 0 42 38" fill="none" xmlns="http://www.w3.org/2000/svg">
<path d="M38 0C40.2091 0 42 1.79086 42 4V34C42 36.2091 40.2091 38 38 38H4C1.79086 38 1.61066e-08 36.2091 0 34V4C3.22133e-07 1.79086 1.79086 4.0266e-08 4 0H38ZM28 35C28 35.5523 28.4477 36 29 36C29.5523 36 30 35.5523 30 35V30C30 28.3431 31.3431 27 33 27H39C39.5523 27 40 26.5523 40 26C40 25.4477 39.5523 25 39 25H31C29.3431 25 28 26.3431 28 28V35ZM31.3308 27.9197C30.9642 28.3325 31.0014 28.9643 31.4141 29.3311L35.9185 33.3355C36.3313 33.7025 36.9635 33.6653 37.3305 33.2525C37.6976 32.8396 37.6604 32.2074 37.2475 31.8404L32.7427 27.8364C32.3299 27.4694 31.6977 27.5067 31.3308 27.9197ZM13 9C13 10.6569 11.6569 12 10 12H3C2.44771 12 2 12.4477 2 13C2 13.5523 2.44772 14 3 14H12C13.6569 14 15 12.6569 15 11V3C15 2.44772 14.5523 2 14 2C13.4477 2 13 2.44772 13 3V9ZM5.08548 4.99753C4.71844 5.41041 4.75562 6.04265 5.16851 6.40966L10.4233 11.0806C10.8362 11.4476 11.4684 11.4104 11.8354 10.9976C12.2025 10.5847 12.1653 9.95247 11.7524 9.58545L6.49756 4.91449C6.08469 4.5475 5.45249 4.58467 5.08548 4.99753Z" fill="#FBFAF6"/>
</svg>
