<svg width="157" height="215" viewBox="0 0 157 215" fill="none" xmlns="http://www.w3.org/2000/svg">
<path d="M0 14.9383C0 6.68809 7.81572 0 17.4569 0H27.5431C37.1843 0 45 6.68808 45 14.9382V200.062C45 208.312 37.1843 215 27.5431 215H17.4569C7.81571 215 0 208.312 0 200.062V14.9383Z" fill="#FBFAF6"/>
<path d="M112 14.9383C112 6.68809 119.816 0 129.457 0H139.543C149.184 0 157 6.68808 157 14.9382V200.062C157 208.312 149.184 215 139.543 215H129.457C119.816 215 112 208.312 112 200.062V14.9383Z" fill="#FBFAF6"/>
</svg>
