<svg width="37" height="37" viewBox="0 0 37 37" fill="none" xmlns="http://www.w3.org/2000/svg">
<path d="M19.0244 37L8.29297 27.9717C3.61557 27.3731 0.000124892 23.3801 0 18.54C0 13.743 3.55121 9.77712 8.16797 9.12402L19.0244 0V37Z" fill="#FBFAF6"/>
<path d="M21.6182 7.30566C26.9632 7.86505 31.1306 12.3829 31.1309 17.876C31.1308 23.3692 26.9634 27.8879 21.6182 28.4473V25.291C25.2292 24.7505 27.999 21.6366 27.999 17.875C27.9988 14.1135 25.2292 10.9994 21.6182 10.459V7.30566Z" fill="#FBFAF6"/>
<path d="M22.4829 2.92578C30.2579 3.73601 36.3188 10.2835 36.3188 18.2422C36.3188 26.2009 30.258 32.7494 22.4829 33.5596V31.1104C28.9064 30.3124 33.8774 24.8553 33.8774 18.2412C33.8772 11.6272 28.9063 6.16986 22.4829 5.37207V2.92578Z" fill="#FBFAF6"/>
</svg>
