<svg width="44" height="38" viewBox="0 0 44 38" fill="none" xmlns="http://www.w3.org/2000/svg">
<path d="M40 0C42.2091 0 44 1.79086 44 4V34C44 36.2091 42.2091 38 40 38H4C1.79086 38 1.61066e-08 36.2091 0 34V4C3.22133e-07 1.79086 1.79086 6.44256e-08 4 0H40ZM5.06055 27.7295C4.20973 27.7295 3.51953 28.4197 3.51953 29.2705C3.51966 30.1212 4.20981 30.8105 5.06055 30.8105H27.499C28.3498 30.8105 29.0399 30.1212 29.04 29.2705C29.04 28.4197 28.3498 27.7295 27.499 27.7295H5.06055ZM34.1006 27.7295C33.2498 27.7295 32.5596 28.4197 32.5596 29.2705C32.5597 30.1212 33.2498 30.8105 34.1006 30.8105H38.9395C39.7902 30.8105 40.4794 30.1212 40.4795 29.2705C40.4795 28.4197 39.7902 27.7295 38.9395 27.7295H34.1006ZM5.06055 20.541C4.20974 20.541 3.51955 21.2303 3.51953 22.0811C3.51953 22.9319 4.20973 23.6221 5.06055 23.6221H15.1797C16.0304 23.6219 16.7197 22.9318 16.7197 22.0811C16.7197 21.2304 16.0303 20.5412 15.1797 20.541H5.06055ZM21.7803 20.541C20.9296 20.5412 20.2402 21.2303 20.2402 22.0811C20.2402 22.9318 20.9296 23.6219 21.7803 23.6221H38.9395C39.7903 23.6221 40.4805 22.9319 40.4805 22.0811C40.4805 21.2303 39.7903 20.541 38.9395 20.541H21.7803Z" fill="#FBFAF6"/>
</svg>
