<svg width="38" height="38" viewBox="0 0 38 38" fill="none" xmlns="http://www.w3.org/2000/svg">
<path d="M33 0C35.7614 0 38 2.23858 38 5V33C38 35.7614 35.7614 38 33 38H5C2.23858 38 9.66415e-08 35.7614 0 33V5C0 2.23858 2.23858 9.66384e-08 5 0H33ZM19.9502 5.44824C12.3146 4.83487 5.6403 10.6952 5.04297 18.5371C4.44585 26.379 10.1515 33.2333 17.7871 33.8467C25.4228 34.4601 32.0971 28.5998 32.6943 20.7578C32.9143 17.8683 32.2786 15.1125 31.0059 12.7539C30.4381 11.7021 28.9832 11.8525 28.4629 12.9287C28.2226 13.4261 28.2595 14.0075 28.5098 14.5C29.42 16.2905 29.8697 18.3553 29.7051 20.5176C29.2367 26.6638 24.0051 31.2571 18.0205 30.7764C12.0363 30.2954 7.56456 24.9233 8.03223 18.7773C8.50033 12.631 13.7313 8.03704 19.7158 8.51758C19.866 8.52965 20.0158 8.54509 20.1641 8.56348C20.7952 8.64159 21.4388 8.41649 21.8223 7.90918C22.491 7.02418 22.0888 5.74557 20.9932 5.57227C20.6499 5.51797 20.3021 5.47652 19.9502 5.44824ZM30.9258 3.99121C30.802 3.86531 30.5981 3.87117 30.4834 4.00391L18.123 18.334C18.0759 18.3887 18.0352 18.4491 18.001 18.5127L17.5068 19.4297C16.9768 20.4151 18.2244 21.4034 19.0566 20.6572L19.6025 20.167C19.6561 20.119 19.7042 20.0653 19.7461 20.0068L30.957 4.37891C31.0421 4.25991 31.0289 4.09624 30.9258 3.99121Z" fill="#FBFAF6"/>
</svg>
