<svg width="512" height="512" viewBox="0 0 512 512" fill="none" xmlns="http://www.w3.org/2000/svg">
<g clip-path="url(#clip0_20_3)">
<rect width="512" height="512" rx="89" fill="#1C1D1F"/>
<path d="M192.909 169.425C192.909 167.485 193.88 166.515 195.821 166.515H217.954C219.896 166.515 220.866 167.485 220.866 169.425V367.265C220.866 369.205 219.896 370.174 217.954 370.174H196.695C195.336 370.174 194.171 369.496 193.2 368.138L102.048 219.467C101.853 218.885 101.562 218.691 101.174 218.885C100.786 218.885 100.591 219.176 100.591 219.758L100.883 367.265C100.883 369.205 99.912 370.174 97.9705 370.174H75.8376C73.8961 370.174 72.9254 369.205 72.9254 367.265V169.425C72.9254 167.485 73.8961 166.515 75.8376 166.515H97.388C98.7471 166.515 99.912 167.194 100.883 168.552L191.744 317.223C191.938 317.805 192.229 318.096 192.618 318.096C193.006 317.902 193.2 317.514 193.2 316.932L192.909 169.425Z" fill="#FBFAF6" stroke="#FBFAF6" stroke-width="10"/>
<rect x="261.714" y="183.026" width="35.5049" height="35.5049" rx="0.5" fill="#FBFAF6" stroke="#FBFAF6"/>
<rect x="261.714" y="309.833" width="35.5049" height="36.1454" rx="0.5" fill="#FBFAF6" stroke="#FBFAF6"/>
<path d="M342.9 371C340.9 371 339.9 370 339.9 368V164C339.9 162 340.9 161 342.9 161H345.9C347.9 161 348.9 162 348.9 164V361.4C348.9 362.2 349.3 362.6 350.1 362.6H460.2C462.2 362.6 463.2 363.6 463.2 365.6V368C463.2 370 462.2 371 460.2 371H342.9Z" fill="#FBFAF6"/>
<path d="M338.9 368V164C338.9 162.846 339.19 161.797 339.943 161.043C340.697 160.289 341.746 160 342.9 160V161L342.537 161.012C340.779 161.129 339.9 162.125 339.9 164V368L339.912 368.363C340.022 370.004 340.896 370.879 342.537 370.988L342.9 371H460.2L460.563 370.988C462.204 370.879 463.079 370.004 463.188 368.363L463.2 368V365.6C463.2 363.725 462.321 362.729 460.563 362.611L460.2 362.6V361.6C461.354 361.6 462.404 361.889 463.157 362.643C463.911 363.396 464.2 364.446 464.2 365.6V368C464.2 369.154 463.911 370.203 463.157 370.957C462.404 371.711 461.354 372 460.2 372H342.9C341.746 372 340.697 371.711 339.943 370.957C339.19 370.203 338.9 369.154 338.9 368ZM460.2 361.6V362.6H350.1V361.6H460.2ZM348.9 361.4V164C348.9 162.125 348.021 161.129 346.264 161.012L345.9 161V160C347.054 160 348.104 160.289 348.857 161.043C349.611 161.797 349.9 162.846 349.9 164V361.4C349.9 361.491 349.909 361.549 349.917 361.582C349.95 361.59 350.008 361.6 350.1 361.6V362.6C349.35 362.599 348.951 362.248 348.904 361.545L348.9 361.4ZM345.9 160V161H342.9V160H345.9Z" fill="#FBFAF6"/>
</g>
<defs>
<clipPath id="clip0_20_3">
<rect width="512" height="512" fill="white"/>
</clipPath>
</defs>
</svg>
