<svg width="83" height="31" viewBox="0 0 83 31" fill="none" xmlns="http://www.w3.org/2000/svg">
<path d="M17.7399 2.38095C17.7399 2.12698 17.8672 2 18.1219 2H21.0254C21.2801 2 21.4074 2.12698 21.4074 2.38095V28.2857C21.4074 28.5397 21.2801 28.6667 21.0254 28.6667H18.2365C18.0582 28.6667 17.9054 28.5778 17.7781 28.4L5.82036 8.93333C5.79489 8.85714 5.75668 8.83175 5.70575 8.85714C5.65481 8.85714 5.62934 8.89524 5.62934 8.97143L5.66754 28.2857C5.66754 28.5397 5.5402 28.6667 5.28551 28.6667H2.38204C2.12735 28.6667 2 28.5397 2 28.2857V2.38095C2 2.12698 2.12735 2 2.38204 2H5.2091C5.38738 2 5.5402 2.08889 5.66754 2.26667L17.5871 21.7333C17.6125 21.8095 17.6507 21.8476 17.7017 21.8476C17.7526 21.8222 17.7781 21.7714 17.7781 21.6952L17.7399 2.38095Z" fill="#FBFAF6" stroke="#FBFAF6" stroke-width="4"/>
<path d="M38.6995 1.5C38.9035 1.5 39.1486 1.55126 39.3391 1.74121C39.5299 1.93147 39.5813 2.1765 39.5813 2.38086V20.5088C39.5814 22.1896 40.1221 23.5267 41.1838 24.5645L41.387 24.748C42.4231 25.6402 43.7665 26.1016 45.4592 26.1016C47.2647 26.1015 48.673 25.5771 49.7346 24.5645C50.7963 23.5267 51.3361 22.1896 51.3362 20.5088V2.38086C51.3362 2.1765 51.3886 1.93147 51.5794 1.74121C51.7698 1.55148 52.0141 1.50006 52.218 1.5H54.1663C54.3701 1.50005 54.6145 1.55148 54.8049 1.74121C54.9957 1.93147 55.0481 2.1765 55.0481 2.38086V20.4326C55.0481 22.2107 54.6479 23.7984 53.8333 25.1797C53.0446 26.5348 51.9159 27.5891 50.4622 28.3408C49.0054 29.0941 47.3332 29.4629 45.4592 29.4629C43.6095 29.4629 41.9502 29.0935 40.4944 28.3408C39.0412 27.5894 37.9008 26.536 37.0872 25.1836L37.0852 25.1797C36.2705 23.7984 35.8704 22.2107 35.8704 20.4326V2.38086C35.8704 2.17654 35.9219 1.93146 36.1126 1.74121C36.3031 1.55121 36.5482 1.50001 36.7522 1.5H38.6995ZM64.6497 28.2773C64.6497 28.4817 64.5981 28.7268 64.4075 28.917C64.2169 29.107 63.9719 29.1582 63.7678 29.1582H61.8206C61.6165 29.1582 61.3714 29.107 61.1809 28.917C60.9901 28.7267 60.9387 28.4817 60.9387 28.2773V2.38086C60.9387 2.1765 60.9901 1.93147 61.1809 1.74121C61.3714 1.55125 61.6166 1.5 61.8206 1.5H63.7297L63.8665 1.50879C64.1773 1.55074 64.4214 1.73457 64.594 1.97559L64.6047 1.98926L64.6135 2.00391L76.8977 21.9424L76.8626 2.38184V2.38086C76.8626 2.17657 76.9141 1.93144 77.1047 1.74121C77.2952 1.55127 77.5404 1.50004 77.7444 1.5H79.6926C79.8965 1.50007 80.1409 1.55147 80.3313 1.74121C80.5221 1.93147 80.5745 2.1765 80.5745 2.38086V28.2773C80.5745 28.4817 80.5221 28.7267 80.3313 28.917C80.1409 29.1068 79.8965 29.1581 79.6926 29.1582H77.7825C77.406 29.1581 77.1154 28.9579 76.9182 28.6826L76.9075 28.6689L76.8987 28.6543L64.6135 8.71289L64.6497 28.2764V28.2773Z" fill="#FBFAF6" stroke="#FBFAF6"/>
<rect x="27.2407" y="4.57407" width="3.74074" height="3.74074" rx="1.87037" fill="#FBFAF6" stroke="#FBFAF6"/>
<rect x="27.2407" y="21.3148" width="3.74074" height="3.74074" rx="1.87037" fill="#FBFAF6" stroke="#FBFAF6"/>
</svg>
