<svg width="151" height="31" viewBox="0 0 151 31" fill="none" xmlns="http://www.w3.org/2000/svg">
<path d="M17.7399 2.38095C17.7399 2.12698 17.8672 2 18.1219 2H21.0254C21.2801 2 21.4074 2.12698 21.4074 2.38095V28.2857C21.4074 28.5397 21.2801 28.6667 21.0254 28.6667H18.2365C18.0582 28.6667 17.9054 28.5778 17.7781 28.4L5.82036 8.93333C5.79489 8.85714 5.75668 8.83175 5.70575 8.85714C5.65481 8.85714 5.62934 8.89524 5.62934 8.97143L5.66754 28.2857C5.66754 28.5397 5.5402 28.6667 5.28551 28.6667H2.38204C2.12735 28.6667 2 28.5397 2 28.2857V2.38095C2 2.12698 2.12735 2 2.38204 2H5.2091C5.38738 2 5.5402 2.08889 5.66754 2.26667L17.5871 21.7333C17.6125 21.8095 17.6507 21.8476 17.7017 21.8476C17.7526 21.8222 17.7781 21.7714 17.7781 21.6952L17.7399 2.38095Z" fill="#FBFAF6" stroke="#FBFAF6" stroke-width="4"/>
<path d="M38.6995 1.5C38.9035 1.5 39.1486 1.55126 39.3391 1.74121C39.5299 1.93147 39.5813 2.1765 39.5813 2.38086V20.5088C39.5814 22.1896 40.1221 23.5267 41.1838 24.5645L41.387 24.748C42.4231 25.6402 43.7665 26.1016 45.4592 26.1016C47.2647 26.1015 48.673 25.5771 49.7346 24.5645C50.7963 23.5267 51.3361 22.1896 51.3362 20.5088V2.38086C51.3362 2.1765 51.3886 1.93147 51.5794 1.74121C51.7698 1.55148 52.0141 1.50006 52.218 1.5H54.1663C54.3701 1.50005 54.6145 1.55148 54.8049 1.74121C54.9957 1.93147 55.0481 2.1765 55.0481 2.38086V20.4326C55.0481 22.2107 54.6479 23.7984 53.8333 25.1797C53.0446 26.5348 51.9159 27.5891 50.4622 28.3408C49.0054 29.0941 47.3332 29.4629 45.4592 29.4629C43.6095 29.4629 41.9502 29.0935 40.4944 28.3408C39.0412 27.5894 37.9008 26.536 37.0872 25.1836L37.0852 25.1797C36.2705 23.7984 35.8704 22.2107 35.8704 20.4326V2.38086C35.8704 2.17654 35.9219 1.93146 36.1126 1.74121C36.3031 1.55121 36.5482 1.50001 36.7522 1.5H38.6995ZM64.6497 28.2773C64.6497 28.4817 64.5981 28.7268 64.4075 28.917C64.2169 29.107 63.9719 29.1582 63.7678 29.1582H61.8206C61.6165 29.1582 61.3714 29.107 61.1809 28.917C60.9901 28.7267 60.9387 28.4817 60.9387 28.2773V2.38086C60.9387 2.1765 60.9901 1.93147 61.1809 1.74121C61.3714 1.55125 61.6166 1.5 61.8206 1.5H63.7297L63.8665 1.50879C64.1773 1.55074 64.4214 1.73457 64.594 1.97559L64.6047 1.98926L64.6135 2.00391L76.8977 21.9424L76.8626 2.38184V2.38086C76.8626 2.17657 76.9141 1.93144 77.1047 1.74121C77.2952 1.55127 77.5404 1.50004 77.7444 1.5H79.6926C79.8965 1.50007 80.1409 1.55147 80.3313 1.74121C80.5221 1.93147 80.5745 2.1765 80.5745 2.38086V28.2773C80.5745 28.4817 80.5221 28.7267 80.3313 28.917C80.1409 29.1068 79.8965 29.1581 79.6926 29.1582H77.7825C77.406 29.1581 77.1154 28.9579 76.9182 28.6826L76.9075 28.6689L76.8987 28.6543L64.6135 8.71289L64.6497 28.2764V28.2773Z" fill="#FBFAF6" stroke="#FBFAF6"/>
<path d="M123.138 8.77344C125.381 8.77349 127.15 9.36742 128.344 10.6416C129.524 11.8747 130.086 13.5476 130.086 15.5957V28.2773C130.086 28.4816 130.035 28.7267 129.844 28.917C129.654 29.1071 129.409 29.1582 129.205 29.1582H128.823C128.619 29.1581 128.374 29.1068 128.184 28.917C127.994 28.7267 127.942 28.4816 127.942 28.2773V27.3438C127.352 27.9172 126.641 28.3806 125.816 28.7363L125.807 28.7402C124.623 29.2239 123.336 29.4629 121.955 29.4629C120.142 29.4628 118.563 29.0222 117.246 28.1182L117.236 28.1113C115.881 27.1328 115.236 25.6299 115.236 23.707C115.236 21.7339 115.987 20.1477 117.494 19.0059C119.008 17.8521 121.048 17.3048 123.557 17.3047H127.942V15.5195C127.942 14.0404 127.538 12.9147 126.777 12.0879C126.043 11.2907 124.843 10.8399 123.062 10.8398C121.705 10.8398 120.619 11.1181 119.777 11.6406C118.944 12.1574 118.461 12.844 118.287 13.7139L118.282 13.7363L118.275 13.7598C118.218 13.9496 118.109 14.1593 117.901 14.2979C117.686 14.4411 117.447 14.4527 117.241 14.4092V14.4102L117.233 14.4082H117.23V14.4072L116.859 14.334C116.688 14.2999 116.484 14.2314 116.327 14.0742C116.145 13.8924 116.087 13.6557 116.119 13.4307L116.123 13.4033C116.406 11.991 117.204 10.8638 118.477 10.0352C119.747 9.18329 121.311 8.77344 123.138 8.77344ZM137.027 1.5C137.231 1.50001 137.476 1.55113 137.667 1.74121C137.857 1.93147 137.909 2.17664 137.909 2.38086V10.9834C138.375 10.4488 138.928 9.99999 139.566 9.63867C140.593 9.05691 141.774 8.77349 143.093 8.77344C144.893 8.77344 146.454 9.27171 147.748 10.2861L147.984 10.4746C149.139 11.437 149.887 12.6811 150.22 14.1895C150.356 14.7836 150.435 15.4377 150.461 16.1484C150.487 16.8434 150.5 17.8539 150.5 19.1758C150.5 20.4719 150.487 21.457 150.461 22.127C150.435 22.8134 150.355 23.454 150.22 24.0469L150.218 24.0576C149.811 25.6823 148.977 26.9996 147.713 27.9863C146.443 28.9789 144.892 29.4629 143.093 29.4629C141.774 29.4628 140.593 29.1803 139.566 28.5986C138.928 28.2372 138.375 27.7877 137.909 27.2529V28.2773C137.909 28.4815 137.857 28.7267 137.667 28.917C137.476 29.1071 137.231 29.1582 137.027 29.1582H136.645C136.441 29.1582 136.196 29.107 136.005 28.917C135.815 28.7267 135.763 28.4815 135.763 28.2773V2.38086C135.763 2.17666 135.815 1.93146 136.005 1.74121C136.196 1.55117 136.441 1.50003 136.645 1.5H137.027ZM96.9849 1.5C97.1889 1.5 97.4341 1.55122 97.6246 1.74121C97.8152 1.93149 97.8668 2.1766 97.8668 2.38086V27.0918H111.523C111.727 27.0918 111.972 27.1429 112.163 27.333C112.353 27.5232 112.405 27.7684 112.405 27.9727V28.2773C112.405 28.4815 112.353 28.7267 112.163 28.917C111.972 29.1071 111.727 29.1582 111.523 29.1582H96.6041C96.4 29.1582 96.1549 29.1071 95.9644 28.917C95.7738 28.7267 95.7222 28.4816 95.7222 28.2773V2.38086C95.7222 2.1766 95.7738 1.93149 95.9644 1.74121C96.1549 1.55116 96.4001 1.5 96.6041 1.5H96.9849ZM123.519 19.333C121.605 19.3331 120.113 19.7494 119.001 20.5361L118.995 20.54C117.914 21.2814 117.381 22.305 117.38 23.6689C117.38 24.9407 117.801 25.8497 118.6 26.4746C119.431 27.0996 120.548 27.4346 121.994 27.4346C123.639 27.4345 125.041 27.0375 126.22 26.2607L126.224 26.2578C127.381 25.5105 127.942 24.4865 127.942 23.1357V19.333H123.519ZM142.979 10.8398C141.66 10.8399 140.585 11.2248 139.72 11.9746L139.719 11.9756C138.866 12.7122 138.338 13.6383 138.129 14.7725C138.056 15.2355 137.994 15.7236 137.945 16.2373C137.92 16.7328 137.909 17.696 137.909 19.1377C137.909 20.5993 137.92 21.5864 137.945 22.1094C137.994 22.5964 138.055 23.0448 138.128 23.4551L138.174 23.667C138.429 24.7156 138.946 25.5916 139.73 26.3086C140.564 27.0239 141.634 27.3965 142.979 27.3965C144.357 27.3965 145.505 27.0193 146.45 26.2832C147.396 25.5461 147.95 24.6161 148.132 23.4756C148.206 23.0119 148.255 22.5351 148.28 22.0449V22.0332L148.281 22.0225C148.329 21.5163 148.355 20.5488 148.355 19.0996C148.355 17.5979 148.33 16.6195 148.282 16.1406L148.28 16.1279V16.1162C148.256 15.6345 148.195 15.195 148.101 14.7969L148.1 14.7891L148.098 14.7822C147.868 13.656 147.297 12.7287 146.369 11.9873L146.363 11.9834C145.444 11.2268 144.325 10.8398 142.979 10.8398Z" fill="#FBFAF6" stroke="#FBFAF6"/>
<rect x="27.2407" y="4.57407" width="3.74074" height="3.74074" rx="1.87037" fill="#FBFAF6" stroke="#FBFAF6"/>
<rect x="27.2407" y="21.3148" width="3.74074" height="3.74074" rx="1.87037" fill="#FBFAF6" stroke="#FBFAF6"/>
</svg>
